<svg width="66" height="66" viewBox="0 0 66 66" fill="none" xmlns="http://www.w3.org/2000/svg">
<rect width="65.4271" height="66" fill="black" fill-opacity="0"/>
<rect width="65.4271" height="66" fill="black" fill-opacity="0"/>
<rect width="65.4271" height="66" fill="black" fill-opacity="0"/>
<path d="M65.4271 33C65.4271 14.7749 50.7803 0 32.7135 0C14.6467 0 0 14.7749 0 33C0 51.225 14.6467 66 32.7135 66C50.7803 66 65.4271 51.225 65.4271 33ZM2.97394 33C2.97394 16.431 16.2883 2.99998 32.7135 2.99998C49.1387 2.99998 62.4531 16.431 62.4531 33C62.4531 49.569 49.1387 63 32.7135 63C16.2883 63 2.97394 49.569 2.97394 33Z" fill="#2E4180"/>
<path d="M33.9685 52.0472V33.0003H40.199L41.1834 26.6884H33.9685V23.5234C33.9685 21.8764 34.5038 20.3044 36.8473 20.3044H41.5312V14.0044H34.8815C29.2905 14.0044 27.7648 17.7183 27.7648 22.8664V26.6855H23.9285V33.0003H27.7648V52.0472H33.9685Z" fill="#2E4180"/>
</svg>
