<svg width="66" height="66" viewBox="0 0 66 66" fill="none" xmlns="http://www.w3.org/2000/svg">
<rect width="65.4271" height="66" fill="black" fill-opacity="0" transform="translate(0.572937)"/>
<rect width="65.4271" height="66" fill="black" fill-opacity="0" transform="translate(0.572937)"/>
<rect width="65.4271" height="66" fill="black" fill-opacity="0" transform="translate(0.572937)"/>
<path d="M47.3147 26.4391C47.3147 26.106 47.3087 25.776 47.2938 25.4491C48.7065 24.387 49.9318 23.0581 50.9013 21.5371C49.6046 22.1251 48.2128 22.5181 46.7496 22.683C48.2425 21.756 49.3875 20.274 49.9288 18.495C48.531 19.35 46.9846 19.962 45.3399 20.28C44.0225 18.768 42.143 17.805 40.0641 17.769C36.073 17.703 32.8374 21.105 32.8374 25.368C32.8374 25.9739 32.8998 26.562 33.0247 27.1289C27.0143 26.739 21.688 23.5829 18.1251 18.825C17.5036 19.965 17.1467 21.297 17.1467 22.7251C17.1467 25.4251 18.4225 27.8251 20.3615 29.241C19.175 29.1871 18.0627 28.8241 17.0873 28.23C17.0873 28.263 17.0873 28.296 17.0873 28.329C17.0873 32.1031 19.5795 35.2651 22.8864 36.003C22.2797 36.177 21.6403 36.267 20.9831 36.2641C20.5162 36.2611 20.0641 36.2101 19.624 36.114C20.5429 39.207 23.2136 41.466 26.3748 41.541C23.9005 43.6109 20.7838 44.8469 17.3994 44.838C16.8165 44.838 16.2396 44.799 15.6745 44.727C18.8745 46.941 22.6722 48.2309 26.7554 48.2309C40.0462 48.2341 47.3147 36.564 47.3147 26.4391Z" fill="#2E4180"/>
<path d="M66 33C66 14.7749 51.3532 0 33.2865 0C15.2196 0 0.572937 14.7749 0.572937 33C0.572937 51.225 15.2196 66 33.2865 66C51.3532 66 66 51.225 66 33ZM3.54688 33C3.54688 16.431 16.8613 2.99998 33.2865 2.99998C49.7117 2.99998 63.0261 16.431 63.0261 33C63.0261 49.569 49.7117 63 33.2865 63C16.8613 63 3.54688 49.569 3.54688 33Z" fill="#2E4180"/>
</svg>
